<svg height="100" viewBox="0 0 312 100" width="312" xmlns="http://www.w3.org/2000/svg"><g fill="none" fill-rule="evenodd" transform="translate(0 -124)"><path d="m0 124h312v100h-312z"/><path d="m156 209c-19.882251 0-36-16.117749-36-36s16.117749-36 36-36 36 16.117749 36 36-16.117749 36-36 36zm18.222232-39.999343-20.444332.000466c-.981652 0-1.777511.79565-1.777768 1.777302l-.002109 4.444242c-.000258.981834.795468 1.777976 1.777302 1.778233.00016 0 .00032.000001.00048.000001l12.446471-.000599c.981834-.000008 1.777775.795919 1.777783 1.777753v.000015l-.000015.444392v.444447c0 2.945502-2.387801 5.333304-5.333304 5.333304l-16.890119-.000049c-.981693 0-1.77752-.795806-1.777547-1.777499l-.000662-16.888481c-.000081-2.945503 2.387655-5.33337 5.333157-5.333451h.000147l24.885554-.000956c.981404 0 1.777159-.795262 1.777768-1.776665l.004962-4.444241c.000609-.981834-.794831-1.778262-1.776665-1.778871-.000368 0-.000735 0-.001103 0l-24.888752.001176c-7.363727 0-13.333219 5.969459-13.333259 13.333186l-.000221 24.88787c-.000005.981834.795924 1.777772 1.777758 1.777778l26.222571-.00001c6.627235 0 11.999671-5.372436 11.999671-11.999671v-10.221904c0-.981834-.795934-1.777768-1.777768-1.777768z" fill="#fff"/></g></svg>